{"title":"Guy Code All Seasons + Specials 720p (1 - 2 - 3) [No Bonus Clips","uid":9264531,"size":21879902346,"categoryP":"video","categoryS":"hd___tv_shows","magnet":"?xt=urn:btih:52d33f388068d52e68c046be34a20007d14919ca&amp;dn=Guy+Code+All+Seasons+%2B+Specials+720p+%281+-+2+-+3%29+%5BNo+Bonus+Clips&amp;tr=udp%3A%2F%2Ftracker.openbittorrent.com%3A80&amp;tr=udp%3A%2F%2Fopen.demonii.com%3A1337&amp;tr=udp%3A%2F%2Ftracker.coppersurfer.tk%3A6969&amp;tr=udp%3A%2F%2Fexodus.desync.com%3A6969","seeders":7,"leechers":3,"uploader":"wtngclan","files":-1,"time":1385677412,"description":"This torrent contains all 3 seasons of MTV's Guy Code.  They are all in 720p resolution except for two episodes (S01E10/S01E11).  The files were named according to MTV's episode list found here:\n &lt;a href=&quot;\nhttp://www.mtv.com/shows/guy_code/video.jhtml?filter=fulleps&quot; rel=&quot;nofollow&quot; target=&quot;_NEW&quot;&gt;\nhttp://www.mtv.com/shows/guy_code/video.jhtml?filter=fulleps&lt;/a&gt;\n\nAlso please be aware that for some reason the last 3 specials the audio is slightly off-sync about halfway through.  My apologizes but I did the best I could and it literally took me hours as-is.  All the other episodes and the spring break special played perfectly when I tested with VLC.\n\nI am planning on redoing the specials and also getting the bonus clips and making one big torrent in the future so keep an eye out for that.  Until then, enjoy!  I could only find season 1 on-line so that's why I put so much effort into bringing everyone this!\n\nGeneral\nComplete name                            : /Guy Code/Season 1/guy.code.s01e01.mp4\nFormat                                   : MPEG-4\nFormat profile                           : Base Media\nCodec ID                                 : isom\nFile size                                : 507 MiB\nDuration                                 : 20mn 21s\nOverall bit rate mode                    : Variable\nOverall bit rate                         : 3 485 Kbps\nEncoded date                             : UTC 2013-11-27 17:37:10\nTagged date                              : UTC 2013-11-27 17:37:10\n\nVideo\nID                                       : 1\nFormat                                   : AVC\nFormat/Info                              : Advanced Video Codec\nFormat profile                           : &lt;a class=&quot;__cf_email__&quot; href=&quot;/cdn-cgi/l/email-protection&quot; data-cfemail=&quot;054d6c626d4549362b37&quot;&gt;[email&amp;#160;protected]&lt;/a&gt;&lt;script cf-hash='f9e31' type=&quot;text/javascript&quot;&gt;\n/* &lt;![CDATA[ */!function(){try{var t=&quot;currentScript&quot;in document?document.currentScript:function(){for(var t=document.getElementsByTagName(&quot;script&quot;),e=t.length;e--;)if(t[e].getAttribute(&quot;cf-hash&quot;))return t[e]}();if(t&amp;&amp;t.previousSibling){var e,r,n,i,c=t.previousSibling,a=c.getAttribute(&quot;data-cfemail&quot;);if(a){for(e=&quot;&quot;,r=parseInt(a.substr(0,2),16),n=2;a.length-n;n+=2)i=parseInt(a.substr(n,2),16)^r,e+=String.fromCharCode(i);e=document.createTextNode(e),c.parentNode.replaceChild(e,c)}}}catch(u){}}();/* ]]&gt; */&lt;/script&gt;\nFormat settings, CABAC                   : Yes\nFormat settings, ReFrames                : 4 frames\nCodec ID                                 : avc1\nCodec ID/Info                            : Advanced Video Coding\nDuration                                 : 20mn 20s\nSource duration                          : 20mn 20s\nBit rate mode                            : Variable\nBit rate                                 : 3 386 Kbps\nMaximum bit rate                         : 6 808 Kbps\nWidth                                    : 1 280 pixels\nHeight                                   : 724 pixels\nOriginal height                          : 720 pixels\nDisplay aspect ratio                     : 16:9\nFrame rate mode                          : Variable\nFrame rate                               : 23.976 fps\nMinimum frame rate                       : 23.810 fps\nMaximum frame rate                       : 24.390 fps\nStandard                                 : NTSC\nColor space                              : YUV\nChroma subsampling                       : 4:2:0\nBit depth                                : 8 bits\nScan type                                : Progressive\nBits/(Pixel*Frame)                       : 0.152\nStream size                              : 493 MiB (97%)\nSource stream size                       : 493 MiB (97%)\nTagged date                              : UTC 2013-11-27 17:37:30\n\nAudio\nID                                       : 2\nFormat                                   : AAC\nFormat/Info                              : Advanced Audio Codec\nFormat profile                           : HE-AAC / LC\nCodec ID                                 : 40\nDuration                                 : 20mn 21s\nBit rate mode                            : Variable\nBit rate                                 : 96.0 Kbps\nMaximum bit rate                         : 101 Kbps\nChannel(s)                               : 2 channels\nChannel positions                        : Front: L R\nSampling rate                            : 44.1 KHz / 22.05 KHz\nCompression mode                         : Lossy\nDelay relative to video                  : 49ms\nStream size                              : 13.8 MiB (3%)\nEncoded date                             : UTC 2013-11-27 17:37:14\nTagged date                              : UTC 2013-11-27 17:37:30","torrent":{"xt":"urn:btih:52d33f388068d52e68c046be34a20007d14919ca","amp;dn":"Guy+Code+All+Seasons+%2B+Specials+720p+%281+-+2+-+3%29+%5BNo+Bonus+Clips","amp;tr":["udp%3A%2F%2Ftracker.openbittorrent.com%3A80","udp%3A%2F%2Fopen.demonii.com%3A1337","udp%3A%2F%2Ftracker.coppersurfer.tk%3A6969","udp%3A%2F%2Fexodus.desync.com%3A6969"],"infoHash":"52d33f388068d52e68c046be34a20007d14919ca","infoHashBuffer":{"type":"Buffer","data":[82,211,63,56,128,104,213,46,104,192,70,190,52,162,0,7,209,73,25,202]},"announce":[],"urlList":[]}}